<?xml version="1.0" encoding="UTF-8" standalone="no"?>
<!DOCTYPE svg PUBLIC "-//W3C//DTD SVG 1.1//EN" "http://www.w3.org/Graphics/SVG/1.1/DTD/svg11.dtd">
<svg width="100%" height="100%" viewBox="0 0 431 278" version="1.1" xmlns="http://www.w3.org/2000/svg" xmlns:xlink="http://www.w3.org/1999/xlink" xml:space="preserve" xmlns:serif="http://www.serif.com/" style="fill-rule:evenodd;clip-rule:evenodd;stroke-linejoin:round;stroke-miterlimit:2;">
    <g transform="matrix(1,0,0,1,-315.492,-382.922)">
        <g>
            <path d="M432.418,472.155C432.403,471.86 432.383,471.564 432.358,471.266C432.063,467.705 431.182,463.975 429.188,459.978C426.358,454.305 421.316,448.729 416.69,445.764C412.884,443.324 409.186,442.743 406.666,443.903C405.016,444.663 403.478,446.706 402.725,450.049C401.233,456.674 401.941,469.807 401.6,480.001C401.441,484.772 401.208,488.819 400.006,490.739C397.267,495.113 394.352,499.103 391.097,501.882C388.845,503.806 386.449,505.133 383.799,505.383C381.444,505.605 378.926,505.07 376.695,504.366C372.725,503.113 369.614,501.249 369.614,501.249C368.537,500.602 367.183,500.637 366.14,501.337C365.097,502.038 364.553,503.278 364.744,504.52C364.744,504.52 365.372,508.621 365.003,512.666C364.889,513.917 364.683,515.165 364.297,516.251C364.023,517.022 363.715,517.733 363.11,518.095C360.348,519.749 356.283,521.356 350.88,520.554C347.303,520.024 343.19,518.463 338.501,515.343C334.741,512.844 331.67,509.02 329.263,505.261C325.118,498.791 322.947,492.426 322.947,492.426C322.443,490.946 320.97,490.023 319.418,490.215C317.867,490.407 316.663,491.662 316.536,493.22C316.536,493.22 315.7,503.355 316.623,513.376C317.083,518.36 317.992,523.309 319.575,527.088C321.192,530.95 323.096,534.729 324.887,538.007C327.192,542.224 329.31,545.609 330.38,547.272C330.021,550.033 329.69,556.23 332.638,562.244C334.718,566.488 338.387,570.677 344.834,573.484C353.125,577.094 363.669,577.739 373.8,576.482C384.558,575.146 394.824,571.685 401.335,567.668C409.899,562.385 416.293,559.272 420.905,556.509C422.894,555.317 424.576,554.177 425.989,552.984C429.117,550.338 431.741,549.576 434.453,547.85C435.762,547.017 437.093,546.006 438.492,544.607C440.499,542.601 441.757,541.142 443.899,540.265C446.177,539.332 449.336,539.028 454.949,539.028C457.049,539.029 459.203,539.503 460.946,540.338C461.788,540.741 462.53,541.221 463.071,541.799C463.39,542.138 463.659,542.492 463.659,542.921C463.659,544.449 463.488,546.048 463.211,547.895C462.483,552.737 461.051,559.124 459.656,569.687C459.652,569.717 459.649,569.746 459.645,569.775C459.058,575.341 459.272,581.405 459.793,586.849C460.678,596.086 462.428,603.511 462.428,603.511C462.784,605.026 464.125,606.104 465.681,606.125C467.236,606.147 468.607,605.106 469.004,603.601C469.004,603.601 472.118,591.763 475.455,580.989C477.261,575.158 479.119,569.641 480.575,566.603C482.167,563.277 484.889,558.707 487.605,552.902C492.669,557.946 497.902,562.533 502.594,566.409C505.168,568.53 509.244,572.019 512.962,576.504C515.847,579.985 518.534,584.066 520.068,588.584L528.523,613.26C528.831,614.174 529.704,614.774 530.667,614.736C531.63,614.697 532.452,614.028 532.686,613.093C532.686,613.093 537.094,594.816 544.018,579.151C547.634,570.97 551.894,563.483 556.603,559.917C557.401,559.319 557.562,558.186 556.964,557.389C556.366,556.591 555.233,556.43 554.436,557.028C549.316,560.831 544.529,568.793 540.521,577.582C536.035,587.423 532.486,598.285 530.433,605.133C530.433,605.133 524.537,587.101 524.537,587.101C523.219,583.031 521.093,579.25 518.668,575.878C514.336,569.854 509.04,565.157 505.877,562.478C500.882,558.26 495.242,553.192 489.907,547.617C490.756,545.51 491.57,543.273 492.31,540.906C494.836,532.834 496.519,523.291 495.906,512.283C495.103,498.288 492.816,489.23 489.93,483.827C486.38,477.18 481.767,475.312 477.407,476.019C475.503,476.327 473.555,477.341 471.761,479.114C469.459,481.388 467.312,485.011 465.778,489.675C463.674,496.072 462.652,504.499 463.76,513.838C464.733,522.041 469.02,530.486 474.928,538.455C477.28,541.627 479.886,544.728 482.621,547.712C479.58,554.644 476.297,559.967 474.504,563.689C472.951,566.922 470.937,572.783 469.007,578.989C468.187,581.628 467.379,584.33 466.627,586.91C466.603,586.677 466.58,586.441 466.557,586.203C466.082,581.213 465.865,575.658 466.398,570.552C467.785,560.053 469.208,553.712 469.929,548.904C470.263,546.682 470.453,544.759 470.453,542.921C470.453,539.909 468.669,537.12 465.587,535.156C462.758,533.353 458.802,532.236 454.949,532.236C448.016,532.237 444.138,532.828 441.325,533.981C438.359,535.196 436.469,537.027 433.691,539.806C432.692,540.805 431.742,541.527 430.807,542.122C427.845,544.008 425.022,544.912 421.605,547.803C420.445,548.787 419.053,549.713 417.418,550.695C412.791,553.474 406.377,556.609 397.785,561.922C391.925,565.546 382.657,568.596 372.968,569.809C364.069,570.924 354.79,570.51 347.503,567.346C342.846,565.324 340.138,562.365 338.632,559.302C335.735,553.408 337.121,547.274 337.121,547.274C337.327,546.376 337.151,545.433 336.637,544.669C336.637,544.669 333.863,540.552 330.719,534.815C329.025,531.725 327.223,528.164 325.693,524.522C324.334,521.286 323.614,517.034 323.216,512.765C323.049,510.978 322.942,509.187 322.877,507.458C323.686,508.791 324.57,510.142 325.53,511.467C328.118,515.039 331.252,518.413 334.869,520.812C340.562,524.586 345.587,526.389 349.926,527.025C357.235,528.096 362.73,525.923 366.461,523.68C368.542,522.429 369.989,520.155 370.764,517.353C371.456,514.853 371.618,511.91 371.581,509.384C373.065,509.989 374.767,510.59 376.56,511.047C379.11,511.697 381.835,512.051 384.41,511.804C388.332,511.427 391.951,509.621 395.278,506.769C398.971,503.604 402.332,499.109 405.436,494.132C406.717,492.08 407.511,488.286 407.819,483.581C408.411,474.536 407.58,461.691 408.501,453.878C408.674,452.416 408.899,451.159 409.245,450.195C409.32,449.987 409.456,449.718 409.537,449.567C410.096,449.451 410.765,449.773 411.526,450.11C413.191,450.848 414.997,452.167 416.749,453.801C419.419,456.293 421.941,459.518 423.577,462.784C425.175,465.971 425.885,468.946 426.126,471.788C426.25,473.25 426.259,474.679 426.199,476.085C425.438,476.577 424.722,477.05 424.054,477.504C420.036,480.23 417.628,482.584 416.964,484.203C415.183,488.546 418.326,492.639 422.379,493.858C424.535,494.506 426.807,494.282 428.513,493.171C430.068,492.158 431.328,490.404 431.456,487.526C431.573,484.899 431.916,482.273 432.171,479.589C438.094,475.829 445.991,471.055 454.63,465.121C466.872,456.711 477.855,450.119 488.221,445.357C496.611,441.501 504.585,438.85 512.493,437.418C527.175,434.759 539.936,437.235 550.46,442.165C564.035,448.524 573.908,458.93 579.411,467.638C582.264,472.152 583.929,477.233 584.946,482.549C586.506,490.707 586.548,499.409 586.745,507.604C586.954,516.313 584.407,534.085 591.444,545.533C595.547,552.208 602.686,557.037 615.234,557.02C630.926,556.998 642.907,552.816 651.715,547.16C650.142,569.792 654.189,595.394 654.189,595.394C654.379,596.607 655.415,597.508 656.644,597.527C657.872,597.546 658.936,596.677 659.163,595.47C659.163,595.47 661.8,581.268 672.907,572.596C678.778,568.012 687.037,565.038 698.524,566.496C710.347,567.998 718.639,573.325 724.413,579.614C735.138,591.295 737.287,606.217 737.287,606.217C737.447,607.351 738.412,608.197 739.557,608.208C740.702,608.219 741.683,607.392 741.866,606.262C741.866,606.262 744.379,590.547 744.081,567.034C743.935,555.56 743.12,542.225 741.016,527.953C739.729,519.232 736.002,509.844 729.705,500.344C722.665,489.721 712.402,478.932 698.776,468.766C687.536,460.38 673.002,456.494 658.345,455.169C626.964,452.333 595.083,461.189 595.083,461.189C594.122,461.454 593.557,462.449 593.822,463.41C594.087,464.371 595.082,464.936 596.043,464.671C596.043,464.671 627.284,456.119 657.989,459.017C671.902,460.331 685.718,463.987 696.359,471.992C707.045,480.032 715.593,488.45 722.058,496.856C730.444,507.76 735.311,518.621 736.739,528.575C738.756,542.642 739.506,555.78 739.605,567.082C739.701,578.084 739.179,587.341 738.606,594.013C736.507,588.635 733.157,582.17 727.91,576.415C721.505,569.39 712.302,563.406 699.143,561.689C686.018,559.976 676.597,563.475 669.869,568.691C664.053,573.2 660.269,579.047 657.88,584.038C656.92,574.599 655.938,560.263 656.949,547.049C657.053,545.698 657.174,544.359 657.319,543.037C658.263,542.244 659.157,541.436 660.003,540.62C666.433,534.415 670.055,527.684 671.407,522.793C672.122,520.206 672.207,518.044 671.873,516.567C671.501,514.921 670.63,513.853 669.571,513.28C668.118,512.493 665.648,512.45 662.679,515.01C657.067,519.851 653.906,529.219 652.437,540.023C651.833,540.492 651.206,540.954 650.559,541.407C642.322,547.17 630.736,551.516 615.234,551.495C605.263,551.481 599.459,547.924 596.213,542.61C589.736,532.008 592.61,515.528 592.439,507.475C592.258,498.971 592.206,489.943 590.608,481.473C589.468,475.435 587.545,469.678 584.317,464.545C578.366,455.083 567.678,443.768 552.963,436.836C541.46,431.418 527.505,428.662 511.434,431.537C503.057,433.036 494.602,435.81 485.708,439.873C475.056,444.74 463.758,451.469 451.172,460.075C444.229,464.823 437.765,468.824 432.418,472.155ZM484.876,542.084C485.249,541.053 485.61,539.993 485.955,538.905C488.301,531.499 489.898,522.744 489.382,512.631C488.88,502.461 487.587,495.114 485.759,490.037C483.672,484.241 481.317,481.704 478.376,482.156C477.358,482.313 476.412,483.089 475.47,484.175C473.417,486.541 471.673,490.327 470.54,495.037C469.3,500.192 468.812,506.415 469.541,513.184C470.33,520.507 474.205,528.018 479.396,535.179C481.098,537.527 482.942,539.835 484.876,542.084ZM666.618,518.677C666.452,518.79 666.287,518.912 666.142,519.037C662.447,522.205 660.146,527.661 658.716,534.19C662.661,529.772 665.078,525.28 666.146,521.756C666.457,520.729 666.576,519.521 666.618,518.677ZM425.473,484.073C424.663,484.673 423.98,485.226 423.439,485.738C423.097,486.061 422.804,486.297 422.701,486.55C422.591,486.819 422.787,487.036 422.969,487.218C423.289,487.54 423.719,487.775 424.162,487.908C424.496,488.007 424.868,488.222 425.09,487.982C425.233,487.827 425.224,487.571 425.237,487.256C425.282,486.196 425.368,485.137 425.473,484.073Z" style="fill:white;"/>
            <g>
                <path d="M533.368,423.94L546.145,411.049L555.353,424.631C555.353,424.631 550.403,430.616 548.677,435.68C546.95,440.745 546.155,462.942 546.155,462.827C546.155,462.712 542.347,462.383 542.347,462.383C542.347,462.383 540.384,440.075 538.856,437.651C535.448,432.241 533.368,423.94 533.368,423.94Z" style="fill:rgb(13,53,184);"/>
                <path d="M542.001,398.042L542.461,401.956L547.756,398.618C547.756,398.618 554.087,403.797 555.353,407.826C555.933,409.673 557.255,413.791 557.137,417.241C556.997,421.316 555.353,424.631 555.353,424.631L546.145,411.049L533.368,423.94C533.368,423.94 530.376,403.222 542.001,398.042Z" style="fill:rgb(13,185,30);"/>
                <path d="M542.461,401.956L542.001,398.042L541.656,389.87L543.517,386.404L547.296,384.694L550.264,385.835L555.353,389.295L550.403,393.323L553.051,396.316L552.475,399.193L555.353,407.826L547.756,398.618L542.461,401.956Z" style="fill:rgb(213,30,24);"/>
                <path d="M554.887,389.673L563.87,392.633L552.97,396.719L550.403,393.323L554.887,389.673Z" style="fill:rgb(241,224,68);"/>
                <path d="M543.513,403.739C543.513,403.739 542.555,399.06 542.133,394.917C541.979,393.404 541.896,391.964 541.966,390.865C542.002,390.281 542.059,389.814 542.224,389.543C542.969,388.317 544.177,386.877 545.538,385.97C546.384,385.407 547.285,385.04 548.163,385.198C548.912,385.332 549.55,385.98 550.231,386.704C551.358,387.904 552.506,389.367 553.845,390.251C554.561,390.724 555.331,391.04 556.167,391.131C557.155,391.239 558.302,391.523 559.412,391.856C560.216,392.097 561,392.365 561.696,392.619C561.695,392.619 552.174,396.285 552.174,396.285C551.585,396.515 551.294,397.178 551.523,397.767C551.523,397.767 553.984,404.17 555.325,410.402C555.999,413.537 556.41,416.625 555.991,418.758C555.653,420.487 554.934,422.28 554.064,424.049C551.646,428.97 548.111,433.715 547.347,436.5C547.014,437.727 546.734,440.459 546.533,443.659C546.101,450.511 545.962,459.568 545.963,459.967C545.964,460.206 545.696,461.092 545.295,461.884C545.142,462.187 544.968,462.478 544.765,462.701C544.684,462.789 544.635,462.909 544.533,462.909C544.386,462.909 544.273,462.751 544.123,462.615C543.856,462.375 543.599,462.068 543.36,461.748C542.787,460.981 542.322,460.135 542.126,459.761C542.023,458.267 541.468,450.311 540.88,444.316C540.549,440.949 540.187,438.181 539.908,437.397C539.32,435.745 536.988,432.98 535.572,430.186C535.061,429.178 534.672,428.169 534.607,427.215C534.454,424.98 533.881,417.262 534.77,410.413C535.306,406.28 536.33,402.454 538.425,400.501C538.766,400.188 538.788,399.657 538.475,399.316C538.161,398.975 537.63,398.953 537.289,399.266C534.936,401.404 533.614,405.587 532.963,410.167C531.97,417.158 532.461,425.055 532.59,427.341C532.658,428.544 533.098,429.831 533.728,431.107C535.067,433.825 537.327,436.504 537.878,438.107C538.129,438.835 538.394,441.404 538.67,444.522C539.257,451.141 539.788,460.156 539.788,460.156C539.798,460.309 539.837,460.459 539.904,460.597C539.904,460.597 540.999,462.85 542.265,464.146C542.989,464.888 543.81,465.309 544.533,465.311C545.356,465.314 546.142,464.855 546.769,464.063C547.814,462.742 548.397,460.457 548.398,459.967C548.399,459.572 548.588,450.605 549.035,443.821C549.232,440.846 549.464,438.303 549.776,437.162C550.507,434.469 553.973,429.905 556.293,425.139C557.255,423.162 558.03,421.153 558.397,419.223C558.85,416.837 558.442,413.386 557.665,409.89C556.588,405.049 554.845,400.113 554.062,398.001C554.062,398.001 565.07,393.642 565.07,393.642C565.48,393.482 565.752,393.091 565.76,392.652C565.768,392.212 565.509,391.812 565.106,391.637C565.106,391.637 562.653,390.593 560.008,389.83C558.766,389.473 557.483,389.177 556.38,389.069C555.87,389.019 555.405,388.816 554.966,388.533C553.744,387.745 552.714,386.403 551.68,385.327C550.66,384.265 549.612,383.45 548.5,383.262C547.153,383.036 545.746,383.496 544.461,384.373C542.883,385.451 541.482,387.142 540.627,388.586C540.148,389.395 540.023,391.315 540.205,393.583C540.568,398.087 541.871,404.086 541.871,404.086C541.966,404.539 542.412,404.829 542.865,404.733C543.318,404.638 543.608,404.192 543.513,403.739Z" style="fill:white;"/>
            </g>
            <g>
                <g transform="matrix(0.983851,0,0,1.01612,49.103,-11.2741)">
                    <text x="400.091px" y="660.358px" style="font-family:'BodoniMT', 'Bodoni MT', serif;font-size:43.236px;fill:white;">UTU<tspan x="490.511px 521.122px " y="660.358px 660.358px ">AL</tspan>ISM</text>
                </g>
                <g transform="matrix(1.5065,0,0,1.66094,-210.098,-436.167)">
                    <text x="400.091px" y="660.358px" style="font-family:'BodoniMT', 'Bodoni MT', serif;font-size:43.236px;fill:white;">M</text>
                </g>
            </g>
        </g>
    </g>
</svg>
