<svg id="Group_88" data-name="Group 88" xmlns="http://www.w3.org/2000/svg" width="86.404" height="44.741" viewBox="0 0 86.404 44.741">
  <path id="Path_131" data-name="Path 131" d="M269.538,252.741H188.788a2.831,2.831,0,0,1-2.827-2.828V210.827A2.831,2.831,0,0,1,188.788,208h80.749a2.831,2.831,0,0,1,2.827,2.827v39.086A2.831,2.831,0,0,1,269.538,252.741Zm-80.749-44.408a2.5,2.5,0,0,0-2.495,2.495v39.086a2.5,2.5,0,0,0,2.495,2.495h80.749a2.5,2.5,0,0,0,2.495-2.495V210.827a2.5,2.5,0,0,0-2.495-2.495Z" transform="translate(-185.961 -208)" fill="#3f3d56"/>
  <circle id="Ellipse_25" data-name="Ellipse 25" cx="1.497" cy="1.497" r="1.497" transform="translate(14.013 6.736)" fill="#ccc"/>
  <circle id="Ellipse_26" data-name="Ellipse 26" cx="1.497" cy="1.497" r="1.497" transform="translate(14.013 12.391)" fill="#ccc"/>
  <circle id="Ellipse_27" data-name="Ellipse 27" cx="1.497" cy="1.497" r="1.497" transform="translate(14.013 18.046)" fill="#ccc"/>
  <circle id="Ellipse_28" data-name="Ellipse 28" cx="1.497" cy="1.497" r="1.497" transform="translate(14.013 23.701)" fill="#ccc"/>
  <circle id="Ellipse_29" data-name="Ellipse 29" cx="1.497" cy="1.497" r="1.497" transform="translate(39.21 35.011)" fill="#ccc"/>
  <circle id="Ellipse_30" data-name="Ellipse 30" cx="1.497" cy="1.497" r="1.497" transform="translate(28.4 35.011)" fill="#ccc"/>
  <circle id="Ellipse_31" data-name="Ellipse 31" cx="1.497" cy="1.497" r="1.497" transform="translate(61.498 35.011)" fill="#ccc"/>
  <circle id="Ellipse_32" data-name="Ellipse 32" cx="1.497" cy="1.497" r="1.497" transform="translate(50.188 35.011)" fill="#ccc"/>
  <path id="Path_132" data-name="Path 132" d="M372.609,256.833H323.377a.166.166,0,1,1,0-.333h49.231a.166.166,0,0,1,0,.333Z" transform="translate(-300.383 -248.433)" fill="#ccc"/>
  <path id="Path_133" data-name="Path 133" d="M372.609,290.833H323.377a.166.166,0,1,1,0-.333h49.231a.166.166,0,1,1,0,.333Z" transform="translate(-300.383 -276.778)" fill="#ccc"/>
  <path id="Path_134" data-name="Path 134" d="M372.609,324.833H323.377a.166.166,0,1,1,0-.333h49.231a.166.166,0,0,1,0,.333Z" transform="translate(-300.383 -305.123)" fill="#ccc"/>
  <path id="Path_135" data-name="Path 135" d="M372.609,358.833H323.377a.166.166,0,1,1,0-.333h49.231a.166.166,0,1,1,0,.333Z" transform="translate(-300.383 -333.468)" fill="#ccc"/>
  <path id="Path_136" data-name="Path 136" d="M351.866,363.654h-4.823a.833.833,0,0,1-.832-.832v-4.491a.833.833,0,0,1,.832-.832h4.823a.833.833,0,0,1,.832.832v4.491A.833.833,0,0,1,351.866,363.654Z" transform="translate(-319.558 -332.635)" fill="#46a16e"/>
  <path id="Path_137" data-name="Path 137" d="M416.866,335.309h-4.823a.833.833,0,0,1-.832-.832V324.332a.833.833,0,0,1,.832-.832h4.823a.833.833,0,0,1,.832.832v10.146a.833.833,0,0,1-.832.832Z" transform="translate(-373.747 -304.29)" fill="#46a16e"/>
  <path id="Path_138" data-name="Path 138" d="M482.866,306.964h-4.823a.833.833,0,0,1-.832-.832v-15.8a.833.833,0,0,1,.832-.832h4.823a.833.833,0,0,1,.832.832v15.8a.833.833,0,0,1-.832.832Z" transform="translate(-428.77 -275.945)" fill="#46a16e"/>
  <path id="Path_139" data-name="Path 139" d="M550.866,279.452h-4.823a.833.833,0,0,1-.832-.832V257.332a.833.833,0,0,1,.832-.832h4.823a.833.833,0,0,1,.832.832v21.289a.833.833,0,0,1-.832.832Z" transform="translate(-485.46 -248.433)" fill="#46a16e"/>
  <path id="Path_156" data-name="Path 156" d="M372.609,392.833H323.377a.166.166,0,1,1,0-.333h49.231a.166.166,0,1,1,0,.333Z" transform="translate(-300.383 -361.814)" fill="#3f3d56"/>
</svg>
