<svg xmlns="http://www.w3.org/2000/svg" width="531.849" height="493.868" viewBox="0 0 531.849 493.868">
  <g id="Group_88" data-name="Group 88" transform="translate(-228.705 -0.002)">
    <path id="Path_185" data-name="Path 185" d="M980.277,434.935a78,78,0,0,1-72,77.77c-.656.05-1.326.1-2,.13v-74.03a4.959,4.959,0,0,0-1.84-3.86,1.245,1.245,0,0,0-.22-.18,1.862,1.862,0,0,0-.23-.16,5,5,0,0,0-4.77-.35l-.83-1.82a7.006,7.006,0,0,1,2.89-.63l-56.96-49.07c.44-.5.9-.99,1.36-1.48a78.007,78.007,0,0,1,134.6,53.68Z" transform="translate(-219.723 -203.065)" fill="#f2f2f2"/>
    <path id="Path_196" data-name="Path 196" d="M906.277,433.905a.981.981,0,0,1-.24.68,1,1,0,0,1-1.41.11l-3.35-2.89-56.96-49.07-159.76-137.65a5.02,5.02,0,0,0-6.54.01l-215.14,186.91-1.94,1.68a.966.966,0,0,1-.25.16,1,1,0,0,1-.51.08,1.025,1.025,0,0,1-.65-.33,1,1,0,0,1,.09-1.41l.27-.24,216.82-188.36a7.047,7.047,0,0,1,9.16-.02l159.81,137.69,60.25,51.92A1.016,1.016,0,0,1,906.277,433.905Z" transform="translate(-219.723 -203.065)" fill="#3f3d56"/>
    <path id="Path_197" data-name="Path 197" d="M784.807,463.435l-2.63-7.24-9.06-25-19.52-53.83-21.82-60.17-39.35-108.53a8.516,8.516,0,0,0-10.89-5.09l-227.51,82.49a8.512,8.512,0,0,0-5.09,10.89l55.79,153.86.95,2.63,58.56,26.54,16.46,7.46,2.67,1.21,69.69,31.59,2.7-.98,45.71-16.57,68.95-25,9.29-3.37a8.518,8.518,0,0,0,5.1-10.89Z" transform="translate(-219.723 -203.065)" fill="#e6e6e6"/>
    <path id="Path_198" data-name="Path 198" d="M689.407,335.275a12.522,12.522,0,0,0-16.02-7.49l-90.02,32.65L539.9,376.2a12.5,12.5,0,0,0,8.52,23.5l34.95-12.67,98.55-35.73a12.522,12.522,0,0,0,7.49-16.02Z" transform="translate(-219.723 -203.065)" fill="#fff"/>
    <path id="Path_199" data-name="Path 199" d="M705.257,379a12.522,12.522,0,0,0-16.02-7.49l-15.25,5.53-90.62,32.86-27.62,10.01a12.5,12.5,0,0,0,8.52,23.51l19.1-6.93,114.4-41.48c.26-.09.51-.2.76-.31a12.5,12.5,0,0,0,6.73-15.7Z" transform="translate(-219.723 -203.065)" fill="#fff"/>
    <path id="Path_200" data-name="Path 200" d="M721.277,423.175a12.511,12.511,0,0,0-16.01-7.49L662.5,431.2l-33.11,12.01-46.02,16.68-11.6,4.21a12.527,12.527,0,0,0-8.13,13.42,12.362,12.362,0,0,0,.6,2.47l16.46,7.46,2.67-.97h.02L666.9,456.2l46.89-17a12.511,12.511,0,0,0,7.49-16.02Z" transform="translate(-219.723 -203.065)" fill="#fff"/>
    <path id="Path_201" data-name="Path 201" d="M627.547,292.3a12.522,12.522,0,0,0-16.02-7.49l-51.7,18.74a12.5,12.5,0,0,0,8.52,23.51l16.36-5.93,10.83-3.93,24.521-8.89A12.511,12.511,0,0,0,627.547,292.3Z" transform="translate(-219.723 -203.065)" fill="#fff"/>
    <path id="Path_202" data-name="Path 202" d="M833.867,317.2h-242a8.5,8.5,0,0,0-7.16,3.93,8.414,8.414,0,0,0-1.34,4.57v162.96l69.69,31.59,9.82,4.45,15.51,7.03a7.02,7.02,0,0,0,5.78,0l15.51-7.03,48.54-22,45.24-20.51,48.91-22.16V325.7A8.505,8.505,0,0,0,833.867,317.2Z" transform="translate(-219.723 -203.065)" fill="#007a4d"/>
    <path id="Path_203" data-name="Path 203" d="M783.867,431.2h-142a12.5,12.5,0,0,0-12.48,12.01,4.006,4.006,0,0,0-.02.49,12.518,12.518,0,0,0,12.5,12.5h142a12.5,12.5,0,0,0,0-25Z" transform="translate(-219.723 -203.065)" fill="#fff"/>
    <path id="Path_204" data-name="Path 204" d="M791.957,480.675a12.411,12.411,0,0,0-8.09-2.98h-142a12.5,12.5,0,1,0,0,25h106.35l45.24-20.51A12.583,12.583,0,0,0,791.957,480.675Z" transform="translate(-219.723 -203.065)" fill="#fff"/>
    <path id="Path_205" data-name="Path 205" d="M662.877,524.7l15.51,7.03a7.02,7.02,0,0,0,5.78,0l15.51-7.03Z" transform="translate(-219.723 -203.065)" fill="#fff"/>
    <path id="Path_206" data-name="Path 206" d="M752.107,377.905a12.506,12.506,0,0,0-11.74-8.21h-55a12.509,12.509,0,0,0-11.38,7.34,12.357,12.357,0,0,0-1.12,5.16,12.518,12.518,0,0,0,12.5,12.5h55a12.5,12.5,0,0,0,11.74-16.79Z" transform="translate(-219.723 -203.065)" fill="#fff"/>
    <path id="Path_207" data-name="Path 207" d="M743.367,502.7l-48.54,22-11.49,5.21a5.016,5.016,0,0,1-4.12,0l-11.49-5.21h-4.85l15.51,7.03a7.02,7.02,0,0,0,5.78,0l15.51-7.03,48.54-22Zm0,0-48.54,22-11.49,5.21a5.016,5.016,0,0,1-4.12,0l-11.49-5.21h-4.85l15.51,7.03a7.02,7.02,0,0,0,5.78,0l15.51-7.03,48.54-22Zm0,0-48.54,22-11.49,5.21a5.016,5.016,0,0,1-4.12,0l-11.49-5.21h-4.85l15.51,7.03a7.02,7.02,0,0,0,5.78,0l15.51-7.03,48.54-22Zm162.91-68.79a7.641,7.641,0,0,0-1.21-.98,6.961,6.961,0,0,0-6.68-.49l-106.43,48.24-48.59,22.02-48.54,22-11.49,5.21a5.016,5.016,0,0,1-4.12,0l-11.49-5.21-11.97-5.43-72.37-32.79-.02-.01-19.73-8.95-58.91-26.7-40.56-18.38a6.106,6.106,0,0,0-1.29-.43,6.708,6.708,0,0,0-2.99-.06,7.017,7.017,0,0,0-5.61,6.86v251.13a7.008,7.008,0,0,0,7,7h440a7.008,7.008,0,0,0,7-7V438.805a6.971,6.971,0,0,0-2-4.9Zm0,256.03a5,5,0,0,1-5,5h-440a5,5,0,0,1-5-5V438.805a5,5,0,0,1,2.29-4.2,5.168,5.168,0,0,1,1.61-.68,4.522,4.522,0,0,1,.51-.08,3.9,3.9,0,0,1,.59-.04,4.971,4.971,0,0,1,2.06.45l42.34,19.19,58.56,26.54,16.46,7.46,2.67,1.21,69.69,31.59,9.82,4.45,15.51,7.03a7.02,7.02,0,0,0,5.78,0l15.51-7.03,48.54-22,45.24-20.51,105.76-47.93a5,5,0,0,1,4.77.35,1.859,1.859,0,0,1,.23.16,1.247,1.247,0,0,1,.22.18,4.959,4.959,0,0,1,1.84,3.86ZM743.367,502.7l-48.54,22-11.49,5.21a5.016,5.016,0,0,1-4.12,0l-11.49-5.21h-4.85l15.51,7.03a7.02,7.02,0,0,0,5.78,0l15.51-7.03,48.54-22Zm0,0-48.54,22-11.49,5.21a5.016,5.016,0,0,1-4.12,0l-11.49-5.21h-4.85l15.51,7.03a7.02,7.02,0,0,0,5.78,0l15.51-7.03,48.54-22ZM580.7,487.445l2.67,1.21v-2.18Zm162.67,15.25-48.54,22-11.49,5.21a5.016,5.016,0,0,1-4.12,0l-11.49-5.21h-4.85l15.51,7.03a7.02,7.02,0,0,0,5.78,0l15.51-7.03,48.54-22Z" transform="translate(-219.723 -203.065)" fill="#3f3d56"/>
  </g>
</svg>
